<svg xmlns="http://www.w3.org/2000/svg" width="40.078" height="26.507" viewBox="0 0 40.078 26.507">
    <defs>
        <style>
            .cls-1{opacity:0}.cls-2{fill:#fff}.cls-3{fill:#ff5f00}.cls-4{fill:#eb001b}.cls-5{fill:#f79e1b}
        </style>
    </defs>
    <g id="mc_symbol">
        <g id="Group_4198" class="cls-1" data-name="Group 4198">
            <path id="Rectangle_2487" d="M0 0h40.078v26.507H0z" class="cls-2" data-name="Rectangle 2487"/>
        </g>
        <path id="Rectangle_2488" d="M0 0h10.572v17.268H0z" class="cls-3" data-name="Rectangle 2488" transform="translate(14.754 4.618)"/>
        <path id="Path_1938" d="M21.018 18.434A10.963 10.963 0 0 1 25.212 9.8a10.981 10.981 0 1 0 0 17.268 10.963 10.963 0 0 1-4.194-8.635z" class="cls-4" data-name="Path 1938" transform="translate(-5.174 -5.181)"/>
        <path id="Path_1939" d="M120.02 64.787v-.354h.153v-.073h-.363v.073h.143v.354zm.7 0v-.427h-.11l-.128.305-.128-.305h-.11v.427h.079v-.323l.119.278h.082l.119-.278v.323z" class="cls-5" data-name="Path 1939" transform="translate(-83.264 -44.728)"/>
        <path id="Path_1940" d="M83.458 18.425a10.981 10.981 0 0 1-17.768 8.632 10.981 10.981 0 0 0 0-17.268 10.981 10.981 0 0 1 17.768 8.632z" class="cls-5" data-name="Path 1940" transform="translate(-45.652 -5.171)"/>
    </g>
</svg>
