<svg xmlns="http://www.w3.org/2000/svg" width="95.723" height="26.988" viewBox="0 0 95.723 26.988">
    <defs>
        <style>
            .cls-1{fill:#2e374d}.cls-2{fill:#2176ff}.cls-3{fill:#1a53f0}
        </style>
    </defs>
    <g id="omise-logo-a86debcb438f41aa395a868ff43fe67090e277d44dea080cd2d51baec405ea71" transform="translate(-.075 -.075)">
        <g id="Group_4199" data-name="Group 4199" transform="translate(32.956 1.765)">
            <path id="Path_1941" d="M178.08 49.918a5.907 5.907 0 0 1-6.28-6.28c0-4.021 2.853-6.338 6.453-6.338a5.893 5.893 0 0 1 6.261 6.28 6.114 6.114 0 0 1-6.434 6.338zm.057-9.631c-1.628 0-2.451 1.3-2.451 3.332s.842 3.293 2.47 3.293 2.451-1.264 2.451-3.312-.842-3.312-2.47-3.312z" class="cls-1" data-name="Path 1941" transform="translate(-171.8 -31.862)"/>
            <path id="Path_1942" d="M260.216 42.826c0-1.417-.613-1.915-1.608-1.915a2.941 2.941 0 0 0-1.915.766V49.8h-3.925v-6.97c0-1.417-.632-1.915-1.628-1.915a2.923 2.923 0 0 0-1.915.708V49.8H245.3l.019-11.986h3.925v1.532a4.957 4.957 0 0 1 3.772-1.742 3.4 3.4 0 0 1 3.332 2.125 5.3 5.3 0 0 1 4.1-2.106c2.317 0 3.7 1.551 3.676 4.1l-.019 8.118h-3.925z" class="cls-1" data-name="Path 1942" transform="translate(-231.227 -32.103)"/>
            <path id="Path_1943" d="M354.517 13.093c-1.436 0-2.317-.747-2.317-2.087 0-1.4.9-2.106 2.317-2.106s2.317.708 2.317 2.125c0 1.341-.862 2.068-2.317 2.068zm-1.953 1.532h3.925l-.019 11.986h-3.925z" class="cls-1" data-name="Path 1943" transform="translate(-317.658 -8.9)"/>
            <path id="Path_1944" d="M386.317 50.3a11.755 11.755 0 0 1-5.017-1.053l.766-2.834a9.765 9.765 0 0 0 4.327 1.13c1.072 0 1.608-.326 1.608-.957 0-.689-.67-.919-2.01-1.225-2.757-.555-4.5-1.551-4.5-3.868 0-2.221 1.934-3.791 5.227-3.791a12.567 12.567 0 0 1 4.806 1.034l-.785 2.8a9.741 9.741 0 0 0-4.078-1.072c-.957 0-1.455.306-1.455.881 0 .632.728.9 2.03 1.168 2.776.613 4.461 1.532 4.442 3.906.022 2.118-1.857 3.881-5.361 3.881z" class="cls-1" data-name="Path 1944" transform="translate(-341.186 -32.186)"/>
            <path id="Path_1945" d="M446.37 47.346a7.953 7.953 0 0 0 3.868-1.149l.383 3.025a10.476 10.476 0 0 1-4.615.957c-4 0-6.606-2.221-6.606-6.2a6.06 6.06 0 0 1 6.414-6.376c3.351 0 5.189 2.01 5.189 4.978a8 8 0 0 1-.249 2.087l-7.506.115v.057c.115 1.625 1.188 2.506 3.122 2.506zm1-4.749c0-1.417-.574-2.259-1.8-2.279a2.483 2.483 0 0 0-2.3 2.508l4.1-.019V42.6z" class="cls-1" data-name="Path 1945" transform="translate(-388.162 -32.104)"/>
        </g>
        <g id="Group_4200" data-name="Group 4200" transform="translate(.075 .075)">
            <path id="Path_1946" d="M23.114 4.024a13.5 13.5 0 1 0 0 19.09 13.51 13.51 0 0 0 0-19.09zm-2.106 9.842l-7.142 7.142a.428.428 0 0 1-.613 0l-7.142-7.142a.428.428 0 0 1 0-.613l7.142-7.142a.428.428 0 0 1 .613 0l7.142 7.142a.428.428 0 0 1 0 .613z" class="cls-2" data-name="Path 1946" transform="translate(-.075 -.075)"/>
            <path id="Path_1947" d="M82.805 23.222a13.521 13.521 0 0 0-3.944-9.555 5.478 5.478 0 0 0-7.755-.019L69 15.736a.422.422 0 0 1 .287-.115.452.452 0 0 1 .306.134L78.823 25a5.478 5.478 0 0 1 0 7.755 13.433 13.433 0 0 0 3.982-9.533z" class="cls-3" data-name="Path 1947" transform="translate(-55.803 -9.757)"/>
            <path id="Path_1948" d="M13.919 78.542a5.518 5.518 0 0 0 7.774.019s.862-.9 2.087-2.125a.445.445 0 0 1-.613.019l-.019-.019-7.1-7.1a.42.42 0 0 1-.134-.326.435.435 0 0 1 .115-.306l-2.068 2.068a5.518 5.518 0 0 0-.038 7.774z" class="cls-3" data-name="Path 1948" transform="translate(-9.989 -55.56)"/>
        </g>
    </g>
</svg>
